<svg xmlns="http://www.w3.org/2000/svg" xmlns:xlink="http://www.w3.org/1999/xlink" width="288" zoomAndPan="magnify" viewBox="0 0 216 107.999999" height="144" preserveAspectRatio="xMidYMid meet" version="1.0"><defs><g/><clipPath id="c1052bc312"><rect x="0" width="216" y="0" height="108"/></clipPath></defs><g transform="matrix(1, 0, 0, 1, 0, -0.000000000000000835)"><g clip-path="url(#c1052bc312)"><g fill="#2f2c32" fill-opacity="1"><g transform="translate(-3.572553, 75.446955)"><g><path d="M 12.875 1.4375 C 11.914062 1.4375 11.269531 1.269531 10.9375 0.9375 C 10.613281 0.613281 10.304688 0.148438 10.015625 -0.453125 C 9.710938 -1.160156 9.5625 -1.695312 9.5625 -2.0625 C 9.207031 -5.632812 8.925781 -8.6875 8.71875 -11.21875 C 8.507812 -13.75 8.359375 -16.128906 8.265625 -18.359375 C 8.179688 -20.597656 8.125 -23.046875 8.09375 -25.703125 C 8.0625 -28.359375 8.046875 -31.5625 8.046875 -35.3125 C 8.046875 -36.320312 8.3125 -37.1875 8.84375 -37.90625 C 9.382812 -38.625 10.132812 -38.984375 11.09375 -38.984375 C 11.625 -38.984375 12.234375 -38.890625 12.921875 -38.703125 C 13.609375 -38.523438 14.160156 -38.4375 14.578125 -38.4375 C 18.210938 -38.4375 21.503906 -37.929688 24.453125 -36.921875 C 27.398438 -35.910156 29.753906 -34.460938 31.515625 -32.578125 C 33.273438 -30.703125 34.15625 -28.394531 34.15625 -25.65625 C 34.15625 -22.914062 33.273438 -20.53125 31.515625 -18.5 C 29.753906 -16.476562 27.472656 -14.867188 24.671875 -13.671875 C 21.867188 -12.484375 18.953125 -11.769531 15.921875 -11.53125 C 15.378906 -11.53125 15.109375 -11.234375 15.109375 -10.640625 C 15.222656 -10.097656 15.296875 -9.570312 15.328125 -9.0625 C 15.359375 -8.5625 15.40625 -8.070312 15.46875 -7.59375 L 16.09375 -1.78125 C 16.09375 -0.894531 15.765625 -0.140625 15.109375 0.484375 C 14.453125 1.117188 13.707031 1.4375 12.875 1.4375 Z M 14.65625 -18.0625 C 14.78125 -17.519531 15.082031 -17.25 15.5625 -17.25 C 16.875 -17.3125 18.378906 -17.609375 20.078125 -18.140625 C 21.773438 -18.679688 23.320312 -19.382812 24.71875 -20.25 C 26.125 -21.113281 27.003906 -22.023438 27.359375 -22.984375 C 27.660156 -23.867188 27.8125 -24.671875 27.8125 -25.390625 C 27.8125 -27.234375 27.210938 -28.722656 26.015625 -29.859375 C 24.828125 -30.992188 23.273438 -31.84375 21.359375 -32.40625 C 19.453125 -32.976562 17.398438 -33.289062 15.203125 -33.34375 C 14.609375 -33.34375 14.3125 -33.046875 14.3125 -32.453125 C 14.363281 -31.503906 14.390625 -30.566406 14.390625 -29.640625 C 14.390625 -28.710938 14.390625 -27.742188 14.390625 -26.734375 C 14.390625 -25.242188 14.40625 -23.78125 14.4375 -22.34375 C 14.46875 -20.914062 14.539062 -19.488281 14.65625 -18.0625 Z M 14.65625 -18.0625 "/></g></g></g><g fill="#2f2c32" fill-opacity="1"><g transform="translate(43.359342, 75.446955)"><g><path d="M 18.5 1.609375 C 16.957031 1.671875 15.363281 1.253906 13.71875 0.359375 C 12.082031 -0.535156 10.992188 -1.640625 10.453125 -2.953125 C 9.679688 -4.679688 9.160156 -6.4375 8.890625 -8.21875 C 8.628906 -10.007812 8.4375 -11.800781 8.3125 -13.59375 C 8.195312 -14.957031 8.164062 -16.710938 8.21875 -18.859375 C 8.28125 -21.003906 8.34375 -23.238281 8.40625 -25.5625 C 8.40625 -25.988281 8.421875 -26.394531 8.453125 -26.78125 C 8.484375 -27.164062 8.5 -27.566406 8.5 -27.984375 C 8.550781 -29.054688 8.59375 -30.023438 8.625 -30.890625 C 8.65625 -31.753906 8.640625 -32.691406 8.578125 -33.703125 C 8.578125 -34.003906 8.429688 -34.363281 8.140625 -34.78125 C 6.703125 -36.207031 7.085938 -37.546875 9.296875 -38.796875 C 10.671875 -39.628906 12.015625 -39.8125 13.328125 -39.34375 C 13.554688 -39.28125 13.773438 -39.265625 13.984375 -39.296875 C 14.203125 -39.328125 14.457031 -39.367188 14.75 -39.421875 C 15.644531 -39.484375 16.539062 -39.554688 17.4375 -39.640625 C 18.332031 -39.734375 19.222656 -39.8125 20.109375 -39.875 C 21.003906 -39.988281 21.898438 -40.078125 22.796875 -40.140625 C 23.691406 -40.203125 24.613281 -40.265625 25.5625 -40.328125 C 26.820312 -40.328125 27.925781 -40.234375 28.875 -40.046875 C 29.59375 -39.929688 30.203125 -39.648438 30.703125 -39.203125 C 31.210938 -38.753906 31.46875 -38.234375 31.46875 -37.640625 C 31.53125 -37.046875 31.304688 -36.492188 30.796875 -35.984375 C 30.296875 -35.472656 29.65625 -35.160156 28.875 -35.046875 C 28.164062 -34.984375 27.453125 -34.953125 26.734375 -34.953125 C 26.015625 -34.953125 25.328125 -34.925781 24.671875 -34.875 C 24.253906 -34.875 23.765625 -34.859375 23.203125 -34.828125 C 22.640625 -34.796875 21.789062 -34.75 20.65625 -34.6875 C 19.519531 -34.625 17.910156 -34.535156 15.828125 -34.421875 C 15.234375 -34.304688 14.9375 -33.976562 14.9375 -33.4375 L 14.9375 -23.15625 C 14.9375 -22.4375 15.265625 -22.140625 15.921875 -22.265625 C 18.835938 -22.554688 21.082031 -22.757812 22.65625 -22.875 C 24.238281 -23 25.445312 -23.078125 26.28125 -23.109375 C 27.113281 -23.140625 27.832031 -23.125 28.4375 -23.0625 C 29.382812 -23.0625 30.140625 -22.835938 30.703125 -22.390625 C 31.273438 -21.941406 31.5625 -21.332031 31.5625 -20.5625 C 31.5625 -19.84375 31.273438 -19.257812 30.703125 -18.8125 C 30.140625 -18.375 29.410156 -18.125 28.515625 -18.0625 L 24.3125 -17.796875 C 23.300781 -17.734375 22.1875 -17.671875 20.96875 -17.609375 C 19.75 -17.554688 17.945312 -17.347656 15.5625 -16.984375 C 14.90625 -16.867188 14.632812 -16.539062 14.75 -16 C 14.8125 -14.75 14.898438 -13.273438 15.015625 -11.578125 C 15.140625 -9.878906 15.441406 -8.164062 15.921875 -6.4375 C 16.273438 -5.125 16.71875 -4.316406 17.25 -4.015625 C 17.789062 -3.722656 18.773438 -3.753906 20.203125 -4.109375 C 20.859375 -4.234375 21.484375 -4.382812 22.078125 -4.5625 C 22.679688 -4.738281 23.28125 -4.914062 23.875 -5.09375 L 26.375 -5.8125 C 28.21875 -6.289062 29.5 -5.992188 30.21875 -4.921875 C 30.457031 -4.742188 30.609375 -4.414062 30.671875 -3.9375 C 30.847656 -3.34375 30.738281 -2.757812 30.34375 -2.1875 C 29.957031 -1.625 29.347656 -1.191406 28.515625 -0.890625 C 26.972656 -0.359375 25.378906 0.160156 23.734375 0.671875 C 22.097656 1.179688 20.351562 1.492188 18.5 1.609375 Z M 18.5 1.609375 "/></g></g></g><g fill="#2f2c32" fill-opacity="1"><g transform="translate(86.983692, 75.446955)"><g><path d="M 12.875 1.4375 C 11.914062 1.4375 11.269531 1.269531 10.9375 0.9375 C 10.613281 0.613281 10.304688 0.148438 10.015625 -0.453125 C 9.710938 -1.160156 9.5625 -1.695312 9.5625 -2.0625 C 9.207031 -5.632812 8.925781 -8.6875 8.71875 -11.21875 C 8.507812 -13.75 8.359375 -16.128906 8.265625 -18.359375 C 8.179688 -20.597656 8.125 -23.046875 8.09375 -25.703125 C 8.0625 -28.359375 8.046875 -31.5625 8.046875 -35.3125 C 8.046875 -36.320312 8.3125 -37.1875 8.84375 -37.90625 C 9.382812 -38.625 10.132812 -38.984375 11.09375 -38.984375 C 11.625 -38.984375 12.234375 -38.890625 12.921875 -38.703125 C 13.609375 -38.523438 14.160156 -38.4375 14.578125 -38.4375 C 18.210938 -38.4375 21.503906 -37.929688 24.453125 -36.921875 C 27.398438 -35.910156 29.753906 -34.460938 31.515625 -32.578125 C 33.273438 -30.703125 34.15625 -28.394531 34.15625 -25.65625 C 34.15625 -22.914062 33.273438 -20.53125 31.515625 -18.5 C 29.753906 -16.476562 27.472656 -14.867188 24.671875 -13.671875 C 21.867188 -12.484375 18.953125 -11.769531 15.921875 -11.53125 C 15.378906 -11.53125 15.109375 -11.234375 15.109375 -10.640625 C 15.222656 -10.097656 15.296875 -9.570312 15.328125 -9.0625 C 15.359375 -8.5625 15.40625 -8.070312 15.46875 -7.59375 L 16.09375 -1.78125 C 16.09375 -0.894531 15.765625 -0.140625 15.109375 0.484375 C 14.453125 1.117188 13.707031 1.4375 12.875 1.4375 Z M 14.65625 -18.0625 C 14.78125 -17.519531 15.082031 -17.25 15.5625 -17.25 C 16.875 -17.3125 18.378906 -17.609375 20.078125 -18.140625 C 21.773438 -18.679688 23.320312 -19.382812 24.71875 -20.25 C 26.125 -21.113281 27.003906 -22.023438 27.359375 -22.984375 C 27.660156 -23.867188 27.8125 -24.671875 27.8125 -25.390625 C 27.8125 -27.234375 27.210938 -28.722656 26.015625 -29.859375 C 24.828125 -30.992188 23.273438 -31.84375 21.359375 -32.40625 C 19.453125 -32.976562 17.398438 -33.289062 15.203125 -33.34375 C 14.609375 -33.34375 14.3125 -33.046875 14.3125 -32.453125 C 14.363281 -31.503906 14.390625 -30.566406 14.390625 -29.640625 C 14.390625 -28.710938 14.390625 -27.742188 14.390625 -26.734375 C 14.390625 -25.242188 14.40625 -23.78125 14.4375 -22.34375 C 14.46875 -20.914062 14.539062 -19.488281 14.65625 -18.0625 Z M 14.65625 -18.0625 "/></g></g></g><g fill="#2f2c32" fill-opacity="1"><g transform="translate(133.915587, 75.446955)"><g><path d="M 13.671875 1.078125 C 12.304688 0.953125 11.191406 0.488281 10.328125 -0.3125 C 9.460938 -1.113281 8.96875 -2.082031 8.84375 -3.21875 L 8.578125 -6.078125 C 8.523438 -7.035156 8.46875 -7.957031 8.40625 -8.84375 C 8.34375 -9.738281 8.3125 -10.664062 8.3125 -11.625 C 8.3125 -12.34375 8.296875 -13.117188 8.265625 -13.953125 C 8.234375 -14.785156 8.21875 -15.585938 8.21875 -16.359375 C 8.21875 -17.671875 8.203125 -18.984375 8.171875 -20.296875 C 8.148438 -21.609375 8.164062 -22.828125 8.21875 -23.953125 C 8.21875 -24.253906 8.234375 -24.523438 8.265625 -24.765625 C 8.296875 -25.003906 8.3125 -25.242188 8.3125 -25.484375 C 8.4375 -26.378906 8.523438 -27.257812 8.578125 -28.125 C 8.640625 -28.988281 8.640625 -29.863281 8.578125 -30.75 L 8.578125 -32.453125 C 8.523438 -33.585938 8.523438 -34.722656 8.578125 -35.859375 C 8.578125 -36.742188 8.859375 -37.484375 9.421875 -38.078125 C 9.992188 -38.679688 10.757812 -39.015625 11.71875 -39.078125 C 12.726562 -39.128906 13.617188 -38.859375 14.390625 -38.265625 C 15.171875 -37.671875 15.617188 -36.925781 15.734375 -36.03125 C 15.796875 -35.726562 15.828125 -35.25 15.828125 -34.59375 C 15.765625 -34.363281 15.71875 -34.097656 15.6875 -33.796875 C 15.65625 -33.492188 15.640625 -33.195312 15.640625 -32.90625 C 15.640625 -32.84375 15.625 -32.765625 15.59375 -32.671875 C 15.570312 -32.585938 15.5625 -32.484375 15.5625 -32.359375 L 15.28125 -30.21875 C 15.226562 -29.914062 15.203125 -29.570312 15.203125 -29.1875 C 15.203125 -28.800781 15.203125 -28.429688 15.203125 -28.078125 C 15.203125 -27.535156 15.203125 -26.992188 15.203125 -26.453125 C 15.203125 -25.921875 15.171875 -25.359375 15.109375 -24.765625 C 15.046875 -22.023438 15.015625 -19.101562 15.015625 -16 C 15.015625 -12.90625 15.078125 -9.984375 15.203125 -7.234375 L 15.203125 -6.265625 C 15.203125 -6.023438 15.203125 -5.800781 15.203125 -5.59375 C 15.203125 -5.382812 15.226562 -5.160156 15.28125 -4.921875 C 15.40625 -4.316406 15.734375 -4.078125 16.265625 -4.203125 C 16.679688 -4.265625 17.082031 -4.304688 17.46875 -4.328125 C 17.863281 -4.359375 18.238281 -4.40625 18.59375 -4.46875 L 21.90625 -4.734375 C 22.082031 -4.734375 22.257812 -4.75 22.4375 -4.78125 C 22.613281 -4.8125 22.820312 -4.828125 23.0625 -4.828125 C 23.476562 -4.890625 23.910156 -4.929688 24.359375 -4.953125 C 24.804688 -4.984375 25.238281 -5 25.65625 -5 C 25.894531 -5 26.132812 -5 26.375 -5 C 26.613281 -5 26.851562 -4.972656 27.09375 -4.921875 C 29.175781 -4.742188 30.21875 -3.90625 30.21875 -2.40625 C 30.21875 -0.800781 29.113281 0.0859375 26.90625 0.265625 L 24.046875 0.53125 C 22.859375 0.59375 21.632812 0.679688 20.375 0.796875 C 19.125 0.921875 17.90625 0.984375 16.71875 0.984375 C 16.539062 0.984375 16.363281 0.984375 16.1875 0.984375 C 16.007812 0.984375 15.800781 1.015625 15.5625 1.078125 C 15.320312 1.078125 15.019531 1.085938 14.65625 1.109375 C 14.300781 1.140625 13.972656 1.128906 13.671875 1.078125 Z M 13.671875 1.078125 "/></g></g></g><g fill="#2f2c32" fill-opacity="1"><g transform="translate(175.215714, 75.446955)"><g><path d="M 6.609375 2.140625 C 5.722656 2.140625 4.960938 1.929688 4.328125 1.515625 C 3.703125 1.097656 3.332031 0.5625 3.21875 -0.09375 C 3.21875 -0.09375 3.273438 -0.328125 3.390625 -0.796875 C 3.515625 -1.273438 3.632812 -1.695312 3.75 -2.0625 C 3.988281 -2.894531 4.242188 -3.890625 4.515625 -5.046875 C 4.785156 -6.210938 5.035156 -7.253906 5.265625 -8.171875 C 5.503906 -9.097656 5.625 -9.59375 5.625 -9.65625 C 5.625 -9.71875 5.535156 -9.925781 5.359375 -10.28125 C 5.066406 -11.050781 4.921875 -11.554688 4.921875 -11.796875 C 4.859375 -12.515625 5.304688 -13.140625 6.265625 -13.671875 C 6.679688 -13.972656 6.914062 -14.300781 6.96875 -14.65625 C 8.519531 -19.601562 9.847656 -23.757812 10.953125 -27.125 C 12.054688 -30.5 13.53125 -33.46875 15.375 -36.03125 C 16.863281 -38.0625 18.679688 -39.078125 20.828125 -39.078125 C 22.140625 -39.078125 23.273438 -38.804688 24.234375 -38.265625 C 26.734375 -37.128906 28.992188 -33.445312 31.015625 -27.21875 C 33.046875 -20.988281 34.804688 -12.957031 36.296875 -3.125 C 36.535156 -2.050781 36.359375 -1.15625 35.765625 -0.4375 C 35.171875 0.269531 34.335938 0.625 33.265625 0.625 C 32.242188 0.625 31.390625 0.34375 30.703125 -0.21875 C 30.023438 -0.789062 29.6875 -1.519531 29.6875 -2.40625 L 29.6875 -3.9375 C 29.6875 -4.226562 29.695312 -4.476562 29.71875 -4.6875 C 29.75 -4.894531 29.738281 -5.09375 29.6875 -5.28125 C 29.625 -6.164062 29.441406 -7.117188 29.140625 -8.140625 C 28.960938 -8.609375 28.609375 -8.816406 28.078125 -8.765625 C 26.460938 -8.703125 24.640625 -8.65625 22.609375 -8.625 C 20.585938 -8.59375 18.65625 -8.578125 16.8125 -8.578125 L 12.78125 -8.578125 C 12.25 -8.578125 11.921875 -8.3125 11.796875 -7.78125 L 11.53125 -6.609375 C 11.238281 -5.484375 10.894531 -4.21875 10.5 -2.8125 C 10.113281 -1.414062 9.773438 -0.359375 9.484375 0.359375 C 8.828125 1.546875 7.867188 2.140625 6.609375 2.140625 Z M 13.953125 -15.28125 C 13.765625 -14.570312 14 -14.21875 14.65625 -14.21875 C 15.4375 -14.28125 16.242188 -14.3125 17.078125 -14.3125 C 17.910156 -14.3125 18.710938 -14.3125 19.484375 -14.3125 C 20.742188 -14.3125 21.984375 -14.3125 23.203125 -14.3125 C 24.421875 -14.3125 25.65625 -14.335938 26.90625 -14.390625 C 27.5625 -14.515625 27.832031 -14.875 27.71875 -15.46875 C 27 -18.800781 26.191406 -21.835938 25.296875 -24.578125 C 24.398438 -27.328125 23.445312 -29.535156 22.4375 -31.203125 C 22.082031 -31.796875 21.648438 -32.078125 21.140625 -32.046875 C 20.640625 -32.015625 20.238281 -31.703125 19.9375 -31.109375 C 18.445312 -28.484375 17.285156 -25.832031 16.453125 -23.15625 C 15.617188 -20.476562 14.785156 -17.851562 13.953125 -15.28125 Z M 13.953125 -15.28125 "/></g></g></g></g></g></svg>